<svg xmlns="http://www.w3.org/2000/svg" xmlns:xlink="http://www.w3.org/1999/xlink" width="1000" zoomAndPan="magnify" viewBox="0 0 750 749.999995" height="1000" preserveAspectRatio="xMidYMid meet" version="1.0"><defs><clipPath id="id1"><path d="M 165.730469 176.390625 L 333 176.390625 L 333 573 L 165.730469 573 Z M 165.730469 176.390625 " clip-rule="nonzero"/></clipPath><clipPath id="id2"><path d="M 268 432 L 275 432 L 275 440 L 268 440 Z M 268 432 " clip-rule="nonzero"/></clipPath><clipPath id="id3"><path d="M 220.28125 380.3125 L 275.40625 435.433594 L 220.28125 490.558594 L 165.15625 435.433594 Z M 220.28125 380.3125 " clip-rule="nonzero"/></clipPath><clipPath id="id4"><path d="M 220.28125 380.3125 L 275.40625 435.433594 L 220.28125 490.558594 L 165.15625 435.433594 Z M 220.28125 380.3125 " clip-rule="nonzero"/></clipPath><clipPath id="id5"><path d="M 220.28125 380.3125 L 275.40625 435.433594 L 220.28125 490.558594 L 165.15625 435.433594 Z M 220.28125 380.3125 " clip-rule="nonzero"/></clipPath><clipPath id="id6"><path d="M 220 435 L 272 435 L 272 488 L 220 488 Z M 220 435 " clip-rule="nonzero"/></clipPath><clipPath id="id7"><path d="M 220.28125 380.3125 L 275.40625 435.433594 L 220.28125 490.558594 L 165.15625 435.433594 Z M 220.28125 380.3125 " clip-rule="nonzero"/></clipPath><clipPath id="id8"><path d="M 220.28125 380.3125 L 275.40625 435.433594 L 220.28125 490.558594 L 165.15625 435.433594 Z M 220.28125 380.3125 " clip-rule="nonzero"/></clipPath><clipPath id="id9"><path d="M 220.28125 380.3125 L 275.40625 435.433594 L 220.28125 490.558594 L 165.15625 435.433594 Z M 220.28125 380.3125 " clip-rule="nonzero"/></clipPath><clipPath id="id10"><path d="M 171 387 L 269 387 L 269 484 L 171 484 Z M 171 387 " clip-rule="nonzero"/></clipPath><clipPath id="id11"><path d="M 220.28125 380.3125 L 275.40625 435.433594 L 220.28125 490.558594 L 165.15625 435.433594 Z M 220.28125 380.3125 " clip-rule="nonzero"/></clipPath><clipPath id="id12"><path d="M 220.28125 380.3125 L 275.40625 435.433594 L 220.28125 490.558594 L 165.15625 435.433594 Z M 220.28125 380.3125 " clip-rule="nonzero"/></clipPath><clipPath id="id13"><path d="M 220.28125 380.3125 L 275.40625 435.433594 L 220.28125 490.558594 L 165.15625 435.433594 Z M 220.28125 380.3125 " clip-rule="nonzero"/></clipPath><clipPath id="id14"><path d="M 220 383 L 272 383 L 272 436 L 220 436 Z M 220 383 " clip-rule="nonzero"/></clipPath><clipPath id="id15"><path d="M 220.28125 380.3125 L 275.40625 435.433594 L 220.28125 490.558594 L 165.15625 435.433594 Z M 220.28125 380.3125 " clip-rule="nonzero"/></clipPath><clipPath id="id16"><path d="M 220.28125 380.3125 L 275.40625 435.433594 L 220.28125 490.558594 L 165.15625 435.433594 Z M 220.28125 380.3125 " clip-rule="nonzero"/></clipPath><clipPath id="id17"><path d="M 220.28125 380.3125 L 275.40625 435.433594 L 220.28125 490.558594 L 165.15625 435.433594 Z M 220.28125 380.3125 " clip-rule="nonzero"/></clipPath><clipPath id="id18"><path d="M 216 381 L 224 381 L 224 388 L 216 388 Z M 216 381 " clip-rule="nonzero"/></clipPath><clipPath id="id19"><path d="M 220.28125 380.3125 L 275.40625 435.433594 L 220.28125 490.558594 L 165.15625 435.433594 Z M 220.28125 380.3125 " clip-rule="nonzero"/></clipPath><clipPath id="id20"><path d="M 220.28125 380.3125 L 275.40625 435.433594 L 220.28125 490.558594 L 165.15625 435.433594 Z M 220.28125 380.3125 " clip-rule="nonzero"/></clipPath><clipPath id="id21"><path d="M 220.28125 380.3125 L 275.40625 435.433594 L 220.28125 490.558594 L 165.15625 435.433594 Z M 220.28125 380.3125 " clip-rule="nonzero"/></clipPath><clipPath id="id22"><path d="M 168 383 L 221 383 L 221 436 L 168 436 Z M 168 383 " clip-rule="nonzero"/></clipPath><clipPath id="id23"><path d="M 220.28125 380.3125 L 275.40625 435.433594 L 220.28125 490.558594 L 165.15625 435.433594 Z M 220.28125 380.3125 " clip-rule="nonzero"/></clipPath><clipPath id="id24"><path d="M 220.28125 380.3125 L 275.40625 435.433594 L 220.28125 490.558594 L 165.15625 435.433594 Z M 220.28125 380.3125 " clip-rule="nonzero"/></clipPath><clipPath id="id25"><path d="M 220.28125 380.3125 L 275.40625 435.433594 L 220.28125 490.558594 L 165.15625 435.433594 Z M 220.28125 380.3125 " clip-rule="nonzero"/></clipPath><clipPath id="id26"><path d="M 168 435 L 221 435 L 221 488 L 168 488 Z M 168 435 " clip-rule="nonzero"/></clipPath><clipPath id="id27"><path d="M 220.28125 380.3125 L 275.40625 435.433594 L 220.28125 490.558594 L 165.15625 435.433594 Z M 220.28125 380.3125 " clip-rule="nonzero"/></clipPath><clipPath id="id28"><path d="M 220.28125 380.3125 L 275.40625 435.433594 L 220.28125 490.558594 L 165.15625 435.433594 Z M 220.28125 380.3125 " clip-rule="nonzero"/></clipPath><clipPath id="id29"><path d="M 220.28125 380.3125 L 275.40625 435.433594 L 220.28125 490.558594 L 165.15625 435.433594 Z M 220.28125 380.3125 " clip-rule="nonzero"/></clipPath><clipPath id="id30"><path d="M 166 432 L 172 432 L 172 439 L 166 439 Z M 166 432 " clip-rule="nonzero"/></clipPath><clipPath id="id31"><path d="M 220.28125 380.3125 L 275.40625 435.433594 L 220.28125 490.558594 L 165.15625 435.433594 Z M 220.28125 380.3125 " clip-rule="nonzero"/></clipPath><clipPath id="id32"><path d="M 220.28125 380.3125 L 275.40625 435.433594 L 220.28125 490.558594 L 165.15625 435.433594 Z M 220.28125 380.3125 " clip-rule="nonzero"/></clipPath><clipPath id="id33"><path d="M 220.28125 380.3125 L 275.40625 435.433594 L 220.28125 490.558594 L 165.15625 435.433594 Z M 220.28125 380.3125 " clip-rule="nonzero"/></clipPath><clipPath id="id34"><path d="M 216 483 L 224 483 L 224 490 L 216 490 Z M 216 483 " clip-rule="nonzero"/></clipPath><clipPath id="id35"><path d="M 220.28125 380.3125 L 275.40625 435.433594 L 220.28125 490.558594 L 165.15625 435.433594 Z M 220.28125 380.3125 " clip-rule="nonzero"/></clipPath><clipPath id="id36"><path d="M 220.28125 380.3125 L 275.40625 435.433594 L 220.28125 490.558594 L 165.15625 435.433594 Z M 220.28125 380.3125 " clip-rule="nonzero"/></clipPath><clipPath id="id37"><path d="M 220.28125 380.3125 L 275.40625 435.433594 L 220.28125 490.558594 L 165.15625 435.433594 Z M 220.28125 380.3125 " clip-rule="nonzero"/></clipPath><clipPath id="id38"><path d="M 280 202.882812 L 282.882812 202.882812 L 282.882812 206 L 280 206 Z M 280 202.882812 " clip-rule="nonzero"/></clipPath><clipPath id="id39"><path d="M 280 205 L 282.882812 205 L 282.882812 234 L 280 234 Z M 280 205 " clip-rule="nonzero"/></clipPath><clipPath id="id40"><path d="M 251 202.882812 L 281 202.882812 L 281 206 L 251 206 Z M 251 202.882812 " clip-rule="nonzero"/></clipPath><clipPath id="id41"><path d="M 249.933594 202.882812 L 252 202.882812 L 252 206 L 249.933594 206 Z M 249.933594 202.882812 " clip-rule="nonzero"/></clipPath><clipPath id="id42"><path d="M 249.933594 205 L 252 205 L 252 234 L 249.933594 234 Z M 249.933594 205 " clip-rule="nonzero"/></clipPath><clipPath id="id43"><path d="M 251 233 L 281 233 L 281 235.832031 L 251 235.832031 Z M 251 233 " clip-rule="nonzero"/></clipPath><clipPath id="id44"><path d="M 249.933594 233 L 252 233 L 252 235.832031 L 249.933594 235.832031 Z M 249.933594 233 " clip-rule="nonzero"/></clipPath><clipPath id="id45"><path d="M 280 233 L 282.882812 233 L 282.882812 235.832031 L 280 235.832031 Z M 280 233 " clip-rule="nonzero"/></clipPath><clipPath id="id46"><path d="M 417 177 L 584.257812 177 L 584.257812 573.597656 L 417 573.597656 Z M 417 177 " clip-rule="nonzero"/></clipPath><clipPath id="id47"><path d="M 577 316 L 584 316 L 584 324 L 577 324 Z M 577 316 " clip-rule="nonzero"/></clipPath><clipPath id="id48"><path d="M 529.71875 265.140625 L 584.839844 320.265625 L 529.71875 375.390625 L 474.59375 320.265625 Z M 529.71875 265.140625 " clip-rule="nonzero"/></clipPath><clipPath id="id49"><path d="M 529.71875 265.140625 L 584.839844 320.265625 L 529.71875 375.390625 L 474.59375 320.265625 Z M 529.71875 265.140625 " clip-rule="nonzero"/></clipPath><clipPath id="id50"><path d="M 529.71875 265.140625 L 584.839844 320.265625 L 529.71875 375.390625 L 474.59375 320.265625 Z M 529.71875 265.140625 " clip-rule="nonzero"/></clipPath><clipPath id="id51"><path d="M 529 320 L 582 320 L 582 373 L 529 373 Z M 529 320 " clip-rule="nonzero"/></clipPath><clipPath id="id52"><path d="M 529.71875 265.140625 L 584.839844 320.265625 L 529.71875 375.390625 L 474.59375 320.265625 Z M 529.71875 265.140625 " clip-rule="nonzero"/></clipPath><clipPath id="id53"><path d="M 529.71875 265.140625 L 584.839844 320.265625 L 529.71875 375.390625 L 474.59375 320.265625 Z M 529.71875 265.140625 " clip-rule="nonzero"/></clipPath><clipPath id="id54"><path d="M 529.71875 265.140625 L 584.839844 320.265625 L 529.71875 375.390625 L 474.59375 320.265625 Z M 529.71875 265.140625 " clip-rule="nonzero"/></clipPath><clipPath id="id55"><path d="M 481 272 L 578 272 L 578 369 L 481 369 Z M 481 272 " clip-rule="nonzero"/></clipPath><clipPath id="id56"><path d="M 529.71875 265.140625 L 584.839844 320.265625 L 529.71875 375.390625 L 474.59375 320.265625 Z M 529.71875 265.140625 " clip-rule="nonzero"/></clipPath><clipPath id="id57"><path d="M 529.71875 265.140625 L 584.839844 320.265625 L 529.71875 375.390625 L 474.59375 320.265625 Z M 529.71875 265.140625 " clip-rule="nonzero"/></clipPath><clipPath id="id58"><path d="M 529.71875 265.140625 L 584.839844 320.265625 L 529.71875 375.390625 L 474.59375 320.265625 Z M 529.71875 265.140625 " clip-rule="nonzero"/></clipPath><clipPath id="id59"><path d="M 529 268 L 582 268 L 582 321 L 529 321 Z M 529 268 " clip-rule="nonzero"/></clipPath><clipPath id="id60"><path d="M 529.71875 265.140625 L 584.839844 320.265625 L 529.71875 375.390625 L 474.59375 320.265625 Z M 529.71875 265.140625 " clip-rule="nonzero"/></clipPath><clipPath id="id61"><path d="M 529.71875 265.140625 L 584.839844 320.265625 L 529.71875 375.390625 L 474.59375 320.265625 Z M 529.71875 265.140625 " clip-rule="nonzero"/></clipPath><clipPath id="id62"><path d="M 529.71875 265.140625 L 584.839844 320.265625 L 529.71875 375.390625 L 474.59375 320.265625 Z M 529.71875 265.140625 " clip-rule="nonzero"/></clipPath><clipPath id="id63"><path d="M 526 266 L 534 266 L 534 273 L 526 273 Z M 526 266 " clip-rule="nonzero"/></clipPath><clipPath id="id64"><path d="M 529.71875 265.140625 L 584.839844 320.265625 L 529.71875 375.390625 L 474.59375 320.265625 Z M 529.71875 265.140625 " clip-rule="nonzero"/></clipPath><clipPath id="id65"><path d="M 529.71875 265.140625 L 584.839844 320.265625 L 529.71875 375.390625 L 474.59375 320.265625 Z M 529.71875 265.140625 " clip-rule="nonzero"/></clipPath><clipPath id="id66"><path d="M 529.71875 265.140625 L 584.839844 320.265625 L 529.71875 375.390625 L 474.59375 320.265625 Z M 529.71875 265.140625 " clip-rule="nonzero"/></clipPath><clipPath id="id67"><path d="M 477 268 L 530 268 L 530 321 L 477 321 Z M 477 268 " clip-rule="nonzero"/></clipPath><clipPath id="id68"><path d="M 529.71875 265.140625 L 584.839844 320.265625 L 529.71875 375.390625 L 474.59375 320.265625 Z M 529.71875 265.140625 " clip-rule="nonzero"/></clipPath><clipPath id="id69"><path d="M 529.71875 265.140625 L 584.839844 320.265625 L 529.71875 375.390625 L 474.59375 320.265625 Z M 529.71875 265.140625 " clip-rule="nonzero"/></clipPath><clipPath id="id70"><path d="M 529.71875 265.140625 L 584.839844 320.265625 L 529.71875 375.390625 L 474.59375 320.265625 Z M 529.71875 265.140625 " clip-rule="nonzero"/></clipPath><clipPath id="id71"><path d="M 478 320 L 530 320 L 530 372 L 478 372 Z M 478 320 " clip-rule="nonzero"/></clipPath><clipPath id="id72"><path d="M 529.71875 265.140625 L 584.839844 320.265625 L 529.71875 375.390625 L 474.59375 320.265625 Z M 529.71875 265.140625 " clip-rule="nonzero"/></clipPath><clipPath id="id73"><path d="M 529.71875 265.140625 L 584.839844 320.265625 L 529.71875 375.390625 L 474.59375 320.265625 Z M 529.71875 265.140625 " clip-rule="nonzero"/></clipPath><clipPath id="id74"><path d="M 529.71875 265.140625 L 584.839844 320.265625 L 529.71875 375.390625 L 474.59375 320.265625 Z M 529.71875 265.140625 " clip-rule="nonzero"/></clipPath><clipPath id="id75"><path d="M 475 317 L 482 317 L 482 324 L 475 324 Z M 475 317 " clip-rule="nonzero"/></clipPath><clipPath id="id76"><path d="M 529.71875 265.140625 L 584.839844 320.265625 L 529.71875 375.390625 L 474.59375 320.265625 Z M 529.71875 265.140625 " clip-rule="nonzero"/></clipPath><clipPath id="id77"><path d="M 529.71875 265.140625 L 584.839844 320.265625 L 529.71875 375.390625 L 474.59375 320.265625 Z M 529.71875 265.140625 " clip-rule="nonzero"/></clipPath><clipPath id="id78"><path d="M 529.71875 265.140625 L 584.839844 320.265625 L 529.71875 375.390625 L 474.59375 320.265625 Z M 529.71875 265.140625 " clip-rule="nonzero"/></clipPath><clipPath id="id79"><path d="M 526 368 L 533 368 L 533 375 L 526 375 Z M 526 368 " clip-rule="nonzero"/></clipPath><clipPath id="id80"><path d="M 529.71875 265.140625 L 584.839844 320.265625 L 529.71875 375.390625 L 474.59375 320.265625 Z M 529.71875 265.140625 " clip-rule="nonzero"/></clipPath><clipPath id="id81"><path d="M 529.71875 265.140625 L 584.839844 320.265625 L 529.71875 375.390625 L 474.59375 320.265625 Z M 529.71875 265.140625 " clip-rule="nonzero"/></clipPath><clipPath id="id82"><path d="M 529.71875 265.140625 L 584.839844 320.265625 L 529.71875 375.390625 L 474.59375 320.265625 Z M 529.71875 265.140625 " clip-rule="nonzero"/></clipPath><clipPath id="id83"><path d="M 498 516.765625 L 500.207031 516.765625 L 500.207031 519 L 498 519 Z M 498 516.765625 " clip-rule="nonzero"/></clipPath><clipPath id="id84"><path d="M 498 518 L 500.207031 518 L 500.207031 548 L 498 548 Z M 498 518 " clip-rule="nonzero"/></clipPath><clipPath id="id85"><path d="M 469 516.765625 L 499 516.765625 L 499 519 L 469 519 Z M 469 516.765625 " clip-rule="nonzero"/></clipPath><clipPath id="id86"><path d="M 467.257812 516.765625 L 470 516.765625 L 470 519 L 467.257812 519 Z M 467.257812 516.765625 " clip-rule="nonzero"/></clipPath><clipPath id="id87"><path d="M 467.257812 518 L 470 518 L 470 548 L 467.257812 548 Z M 467.257812 518 " clip-rule="nonzero"/></clipPath><clipPath id="id88"><path d="M 469 547 L 499 547 L 499 549.71875 L 469 549.71875 Z M 469 547 " clip-rule="nonzero"/></clipPath><clipPath id="id89"><path d="M 467.257812 547 L 470 547 L 470 549.71875 L 467.257812 549.71875 Z M 467.257812 547 " clip-rule="nonzero"/></clipPath><clipPath id="id90"><path d="M 498 547 L 500.207031 547 L 500.207031 549.71875 L 498 549.71875 Z M 498 547 " clip-rule="nonzero"/></clipPath><clipPath id="id91"><path d="M 456 294.234375 L 472.867188 294.234375 L 472.867188 301 L 456 301 Z M 456 294.234375 " clip-rule="nonzero"/></clipPath><clipPath id="id92"><path d="M 294.449219 294.234375 L 417 294.234375 L 417 301 L 294.449219 301 Z M 294.449219 294.234375 " clip-rule="nonzero"/></clipPath><clipPath id="id93"><path d="M 294.449219 318 L 374 318 L 374 503.191406 L 294.449219 503.191406 Z M 294.449219 318 " clip-rule="nonzero"/></clipPath><clipPath id="id94"><path d="M 393 318 L 472.867188 318 L 472.867188 466 L 393 466 Z M 393 318 " clip-rule="nonzero"/></clipPath></defs><g clip-path="url(#id1)"><path fill="rgb(0.779724%, 12.159729%, 26.669312%)" d="M 235.300781 217.222656 C 235.300781 222.5625 239.382812 226.648438 244.714844 226.648438 L 300.570312 226.648438 L 170.976562 356.371094 C 166.269531 361.082031 163.761719 367.363281 163.761719 374.273438 C 163.761719 381.183594 166.269531 387.152344 170.976562 392.175781 L 316.570312 537.917969 C 320.335938 541.6875 326.296875 541.6875 329.75 537.917969 C 333.515625 534.148438 333.515625 528.179688 329.75 524.726562 L 183.84375 378.671875 C 181.332031 376.15625 181.332031 372.386719 183.84375 369.875 L 313.746094 239.839844 L 313.746094 295.75 C 313.746094 301.089844 317.828125 305.171875 323.160156 305.171875 C 328.496094 305.171875 332.574219 301.089844 332.574219 295.75 L 332.574219 217.222656 C 332.574219 211.882812 328.496094 207.800781 323.160156 207.800781 L 244.714844 207.800781 C 239.382812 207.800781 235.300781 211.882812 235.300781 217.222656 Z M 34.796875 569.957031 C 38.875 573.410156 44.835938 572.78125 47.976562 568.699219 C 141.796875 455.9375 141.796875 292.292969 47.976562 179.847656 C 46.09375 177.648438 43.582031 176.390625 40.757812 176.390625 C 38.5625 176.390625 36.367188 177.019531 34.796875 178.589844 C 30.71875 182.046875 30.402344 188.011719 33.542969 191.78125 C 121.398438 297.632812 121.398438 450.914062 33.542969 556.761719 C 30.089844 560.847656 30.71875 566.5 34.796875 569.957031 Z M 34.796875 569.957031 " fill-opacity="1" fill-rule="nonzero"/></g><g clip-path="url(#id2)"><g clip-path="url(#id3)"><g clip-path="url(#id4)"><g clip-path="url(#id5)"><path fill="rgb(100%, 100%, 100%)" d="M 273.199219 433.230469 L 271.988281 432.015625 L 268.347656 435.65625 L 271.765625 439.074219 L 273.199219 437.640625 C 274.414062 436.425781 274.414062 434.441406 273.199219 433.230469 Z M 273.199219 433.230469 " fill-opacity="1" fill-rule="nonzero"/></g></g></g></g><g clip-path="url(#id6)"><g clip-path="url(#id7)"><g clip-path="url(#id8)"><g clip-path="url(#id9)"><path fill="rgb(100%, 100%, 100%)" d="M 268.347656 435.65625 L 271.765625 439.074219 L 223.480469 487.363281 L 220.0625 483.945312 Z M 268.347656 435.65625 " fill-opacity="1" fill-rule="nonzero"/></g></g></g></g><g clip-path="url(#id10)"><g clip-path="url(#id11)"><g clip-path="url(#id12)"><g clip-path="url(#id13)"><path fill="rgb(100%, 100%, 100%)" d="M 220.0625 387.367188 L 268.347656 435.65625 L 220.0625 483.945312 L 171.773438 435.65625 Z M 220.0625 387.367188 " fill-opacity="1" fill-rule="nonzero"/></g></g></g></g><g clip-path="url(#id14)"><g clip-path="url(#id15)"><g clip-path="url(#id16)"><g clip-path="url(#id17)"><path fill="rgb(100%, 100%, 100%)" d="M 223.699219 383.730469 L 271.988281 432.015625 L 268.347656 435.65625 L 220.0625 387.367188 Z M 223.699219 383.730469 " fill-opacity="1" fill-rule="nonzero"/></g></g></g></g><g clip-path="url(#id18)"><g clip-path="url(#id19)"><g clip-path="url(#id20)"><g clip-path="url(#id21)"><path fill="rgb(100%, 100%, 100%)" d="M 222.488281 382.515625 C 221.273438 381.304688 219.289062 381.304688 218.078125 382.515625 L 216.644531 383.949219 L 220.0625 387.367188 L 223.699219 383.730469 Z M 222.488281 382.515625 " fill-opacity="1" fill-rule="nonzero"/></g></g></g></g><g clip-path="url(#id22)"><g clip-path="url(#id23)"><g clip-path="url(#id24)"><g clip-path="url(#id25)"><path fill="rgb(100%, 100%, 100%)" d="M 216.644531 383.949219 L 220.0625 387.367188 L 171.773438 435.65625 L 168.355469 432.238281 Z M 216.644531 383.949219 " fill-opacity="1" fill-rule="nonzero"/></g></g></g></g><g clip-path="url(#id26)"><g clip-path="url(#id27)"><g clip-path="url(#id28)"><g clip-path="url(#id29)"><path fill="rgb(100%, 100%, 100%)" d="M 171.773438 435.65625 L 220.0625 483.945312 L 216.863281 487.140625 L 168.574219 438.851562 Z M 171.773438 435.65625 " fill-opacity="1" fill-rule="nonzero"/></g></g></g></g><g clip-path="url(#id30)"><g clip-path="url(#id31)"><g clip-path="url(#id32)"><g clip-path="url(#id33)"><path fill="rgb(100%, 100%, 100%)" d="M 168.355469 432.238281 L 167.363281 433.230469 C 166.148438 434.441406 166.148438 436.425781 167.363281 437.640625 L 168.574219 438.851562 L 171.773438 435.65625 Z M 168.355469 432.238281 " fill-opacity="1" fill-rule="nonzero"/></g></g></g></g><g clip-path="url(#id34)"><g clip-path="url(#id35)"><g clip-path="url(#id36)"><g clip-path="url(#id37)"><path fill="rgb(100%, 100%, 100%)" d="M 218.078125 488.355469 C 219.289062 489.566406 221.273438 489.566406 222.488281 488.355469 L 223.480469 487.363281 L 220.0625 483.945312 L 216.863281 487.140625 Z M 218.078125 488.355469 " fill-opacity="1" fill-rule="nonzero"/></g></g></g></g><g clip-path="url(#id38)"><path fill="rgb(100%, 100%, 100%)" d="M 281.566406 202.882812 L 280.839844 202.882812 L 280.839844 205.054688 L 282.882812 205.054688 L 282.882812 204.199219 C 282.882812 203.472656 282.289062 202.882812 281.566406 202.882812 Z M 281.566406 202.882812 " fill-opacity="1" fill-rule="nonzero"/></g><g clip-path="url(#id39)"><path fill="rgb(100%, 100%, 100%)" d="M 280.839844 205.054688 L 282.882812 205.054688 L 282.882812 233.921875 L 280.839844 233.921875 Z M 280.839844 205.054688 " fill-opacity="1" fill-rule="nonzero"/></g><path fill="rgb(100%, 100%, 100%)" d="M 251.976562 205.054688 L 280.839844 205.054688 L 280.839844 233.921875 L 251.976562 233.921875 Z M 251.976562 205.054688 " fill-opacity="1" fill-rule="nonzero"/><g clip-path="url(#id40)"><path fill="rgb(100%, 100%, 100%)" d="M 251.976562 202.882812 L 280.839844 202.882812 L 280.839844 205.054688 L 251.976562 205.054688 Z M 251.976562 202.882812 " fill-opacity="1" fill-rule="nonzero"/></g><g clip-path="url(#id41)"><path fill="rgb(100%, 100%, 100%)" d="M 251.25 202.882812 C 250.527344 202.882812 249.933594 203.472656 249.933594 204.199219 L 249.933594 205.054688 L 251.976562 205.054688 L 251.976562 202.882812 Z M 251.25 202.882812 " fill-opacity="1" fill-rule="nonzero"/></g><g clip-path="url(#id42)"><path fill="rgb(100%, 100%, 100%)" d="M 249.933594 205.054688 L 251.976562 205.054688 L 251.976562 233.921875 L 249.933594 233.921875 Z M 249.933594 205.054688 " fill-opacity="1" fill-rule="nonzero"/></g><g clip-path="url(#id43)"><path fill="rgb(100%, 100%, 100%)" d="M 251.976562 233.921875 L 280.839844 233.921875 L 280.839844 235.832031 L 251.976562 235.832031 Z M 251.976562 233.921875 " fill-opacity="1" fill-rule="nonzero"/></g><g clip-path="url(#id44)"><path fill="rgb(100%, 100%, 100%)" d="M 249.933594 233.921875 L 249.933594 234.515625 C 249.933594 235.238281 250.527344 235.832031 251.25 235.832031 L 251.976562 235.832031 L 251.976562 233.921875 Z M 249.933594 233.921875 " fill-opacity="1" fill-rule="nonzero"/></g><g clip-path="url(#id45)"><path fill="rgb(100%, 100%, 100%)" d="M 281.566406 235.832031 C 282.289062 235.832031 282.882812 235.238281 282.882812 234.515625 L 282.882812 233.921875 L 280.839844 233.921875 L 280.839844 235.832031 Z M 281.566406 235.832031 " fill-opacity="1" fill-rule="nonzero"/></g><g clip-path="url(#id46)"><path fill="rgb(0.779724%, 12.159729%, 26.669312%)" d="M 514.6875 532.765625 C 514.6875 527.425781 510.605469 523.34375 505.273438 523.34375 L 449.417969 523.34375 L 579.011719 393.621094 C 583.71875 388.910156 586.226562 382.628906 586.226562 375.71875 C 586.226562 368.808594 583.71875 362.839844 579.011719 357.8125 L 433.417969 212.074219 C 429.652344 208.304688 423.691406 208.304688 420.238281 212.074219 C 416.472656 215.84375 416.472656 221.808594 420.238281 225.265625 L 566.144531 371.320312 C 568.65625 373.832031 568.65625 377.601562 566.144531 380.113281 L 436.242188 510.152344 L 436.242188 454.242188 C 436.242188 448.902344 432.160156 444.820312 426.828125 444.820312 C 421.492188 444.820312 417.414062 448.902344 417.414062 454.242188 L 417.414062 532.765625 C 417.414062 538.105469 421.492188 542.1875 426.828125 542.1875 L 505.273438 542.1875 C 510.605469 542.1875 514.6875 538.105469 514.6875 532.765625 Z M 715.191406 180.035156 C 711.113281 176.578125 705.152344 177.207031 702.011719 181.292969 C 608.191406 294.050781 608.191406 457.695312 702.011719 570.144531 C 703.894531 572.34375 706.40625 573.597656 709.230469 573.597656 C 711.425781 573.597656 713.625 572.96875 715.191406 571.398438 C 719.269531 567.945312 719.585938 561.976562 716.449219 558.207031 C 628.589844 452.355469 628.589844 299.078125 716.449219 193.226562 C 719.898438 189.144531 719.269531 183.488281 715.191406 180.035156 Z M 715.191406 180.035156 " fill-opacity="1" fill-rule="nonzero"/></g><g clip-path="url(#id47)"><g clip-path="url(#id48)"><g clip-path="url(#id49)"><g clip-path="url(#id50)"><path fill="rgb(100%, 100%, 100%)" d="M 582.636719 318.058594 L 581.421875 316.847656 L 577.785156 320.484375 L 581.203125 323.902344 L 582.636719 322.46875 C 583.847656 321.257812 583.847656 319.273438 582.636719 318.058594 Z M 582.636719 318.058594 " fill-opacity="1" fill-rule="nonzero"/></g></g></g></g><g clip-path="url(#id51)"><g clip-path="url(#id52)"><g clip-path="url(#id53)"><g clip-path="url(#id54)"><path fill="rgb(100%, 100%, 100%)" d="M 577.785156 320.484375 L 581.203125 323.902344 L 532.914062 372.191406 L 529.496094 368.773438 Z M 577.785156 320.484375 " fill-opacity="1" fill-rule="nonzero"/></g></g></g></g><g clip-path="url(#id55)"><g clip-path="url(#id56)"><g clip-path="url(#id57)"><g clip-path="url(#id58)"><path fill="rgb(100%, 100%, 100%)" d="M 529.496094 272.195312 L 577.785156 320.484375 L 529.496094 368.773438 L 481.207031 320.484375 Z M 529.496094 272.195312 " fill-opacity="1" fill-rule="nonzero"/></g></g></g></g><g clip-path="url(#id59)"><g clip-path="url(#id60)"><g clip-path="url(#id61)"><g clip-path="url(#id62)"><path fill="rgb(100%, 100%, 100%)" d="M 533.136719 268.558594 L 581.421875 316.847656 L 577.785156 320.484375 L 529.496094 272.195312 Z M 533.136719 268.558594 " fill-opacity="1" fill-rule="nonzero"/></g></g></g></g><g clip-path="url(#id63)"><g clip-path="url(#id64)"><g clip-path="url(#id65)"><g clip-path="url(#id66)"><path fill="rgb(100%, 100%, 100%)" d="M 531.921875 267.347656 C 530.710938 266.132812 528.726562 266.132812 527.511719 267.347656 L 526.078125 268.777344 L 529.496094 272.195312 L 533.136719 268.558594 Z M 531.921875 267.347656 " fill-opacity="1" fill-rule="nonzero"/></g></g></g></g><g clip-path="url(#id67)"><g clip-path="url(#id68)"><g clip-path="url(#id69)"><g clip-path="url(#id70)"><path fill="rgb(100%, 100%, 100%)" d="M 526.078125 268.777344 L 529.496094 272.195312 L 481.207031 320.484375 L 477.789062 317.066406 Z M 526.078125 268.777344 " fill-opacity="1" fill-rule="nonzero"/></g></g></g></g><g clip-path="url(#id71)"><g clip-path="url(#id72)"><g clip-path="url(#id73)"><g clip-path="url(#id74)"><path fill="rgb(100%, 100%, 100%)" d="M 481.207031 320.484375 L 529.496094 368.773438 L 526.300781 371.972656 L 478.011719 323.683594 Z M 481.207031 320.484375 " fill-opacity="1" fill-rule="nonzero"/></g></g></g></g><g clip-path="url(#id75)"><g clip-path="url(#id76)"><g clip-path="url(#id77)"><g clip-path="url(#id78)"><path fill="rgb(100%, 100%, 100%)" d="M 477.789062 317.066406 L 476.796875 318.058594 C 475.585938 319.273438 475.585938 321.257812 476.796875 322.46875 L 478.011719 323.683594 L 481.207031 320.484375 Z M 477.789062 317.066406 " fill-opacity="1" fill-rule="nonzero"/></g></g></g></g><g clip-path="url(#id79)"><g clip-path="url(#id80)"><g clip-path="url(#id81)"><g clip-path="url(#id82)"><path fill="rgb(100%, 100%, 100%)" d="M 527.511719 373.183594 C 528.726562 374.398438 530.710938 374.398438 531.921875 373.183594 L 532.914062 372.191406 L 529.496094 368.773438 L 526.300781 371.972656 Z M 527.511719 373.183594 " fill-opacity="1" fill-rule="nonzero"/></g></g></g></g><g clip-path="url(#id83)"><path fill="rgb(100%, 100%, 100%)" d="M 498.890625 516.765625 L 498.164062 516.765625 L 498.164062 518.941406 L 500.207031 518.941406 L 500.207031 518.085938 C 500.207031 517.359375 499.613281 516.765625 498.890625 516.765625 Z M 498.890625 516.765625 " fill-opacity="1" fill-rule="nonzero"/></g><g clip-path="url(#id84)"><path fill="rgb(100%, 100%, 100%)" d="M 498.164062 518.941406 L 500.207031 518.941406 L 500.207031 547.804688 L 498.164062 547.804688 Z M 498.164062 518.941406 " fill-opacity="1" fill-rule="nonzero"/></g><path fill="rgb(100%, 100%, 100%)" d="M 469.300781 518.941406 L 498.164062 518.941406 L 498.164062 547.804688 L 469.300781 547.804688 Z M 469.300781 518.941406 " fill-opacity="1" fill-rule="nonzero"/><g clip-path="url(#id85)"><path fill="rgb(100%, 100%, 100%)" d="M 469.300781 516.765625 L 498.164062 516.765625 L 498.164062 518.941406 L 469.300781 518.941406 Z M 469.300781 516.765625 " fill-opacity="1" fill-rule="nonzero"/></g><g clip-path="url(#id86)"><path fill="rgb(100%, 100%, 100%)" d="M 468.574219 516.765625 C 467.847656 516.765625 467.257812 517.359375 467.257812 518.085938 L 467.257812 518.941406 L 469.300781 518.941406 L 469.300781 516.765625 Z M 468.574219 516.765625 " fill-opacity="1" fill-rule="nonzero"/></g><g clip-path="url(#id87)"><path fill="rgb(100%, 100%, 100%)" d="M 467.257812 518.941406 L 469.300781 518.941406 L 469.300781 547.804688 L 467.257812 547.804688 Z M 467.257812 518.941406 " fill-opacity="1" fill-rule="nonzero"/></g><g clip-path="url(#id88)"><path fill="rgb(100%, 100%, 100%)" d="M 469.300781 547.804688 L 498.164062 547.804688 L 498.164062 549.71875 L 469.300781 549.71875 Z M 469.300781 547.804688 " fill-opacity="1" fill-rule="nonzero"/></g><g clip-path="url(#id89)"><path fill="rgb(100%, 100%, 100%)" d="M 467.257812 547.804688 L 467.257812 548.398438 C 467.257812 549.125 467.847656 549.71875 468.574219 549.71875 L 469.300781 549.71875 L 469.300781 547.804688 Z M 467.257812 547.804688 " fill-opacity="1" fill-rule="nonzero"/></g><g clip-path="url(#id90)"><path fill="rgb(100%, 100%, 100%)" d="M 498.890625 549.71875 C 499.613281 549.71875 500.207031 549.125 500.207031 548.398438 L 500.207031 547.804688 L 498.164062 547.804688 L 498.164062 549.71875 Z M 498.890625 549.71875 " fill-opacity="1" fill-rule="nonzero"/></g><g clip-path="url(#id91)"><path fill="rgb(0.779724%, 12.159729%, 26.669312%)" d="M 459.699219 300.96875 L 469.53125 300.96875 C 471.390625 300.96875 472.898438 299.464844 472.898438 297.609375 C 472.898438 295.75 471.390625 294.25 469.53125 294.25 L 459.699219 294.25 C 457.839844 294.25 456.335938 295.75 456.335938 297.609375 C 456.335938 299.464844 457.839844 300.96875 459.699219 300.96875 " fill-opacity="1" fill-rule="nonzero"/></g><g clip-path="url(#id92)"><path fill="rgb(0.779724%, 12.159729%, 26.669312%)" d="M 297.835938 300.96875 L 413.167969 300.96875 C 415.027344 300.96875 416.53125 299.464844 416.53125 297.609375 C 416.53125 295.75 415.027344 294.25 413.167969 294.25 L 297.835938 294.25 C 295.976562 294.25 294.472656 295.75 294.472656 297.609375 C 294.472656 299.464844 295.976562 300.96875 297.835938 300.96875 " fill-opacity="1" fill-rule="nonzero"/></g><g clip-path="url(#id93)"><path fill="rgb(0.779724%, 12.159729%, 26.669312%)" d="M 294.472656 321.519531 C 294.472656 323.375 295.976562 324.875 297.835938 324.875 L 366.851562 324.875 L 366.851562 499.867188 C 366.851562 501.726562 368.359375 503.226562 370.21875 503.226562 C 372.078125 503.226562 373.582031 501.726562 373.582031 499.867188 L 373.582031 318.15625 L 297.835938 318.15625 C 295.976562 318.15625 294.472656 319.660156 294.472656 321.519531 " fill-opacity="1" fill-rule="nonzero"/></g><g clip-path="url(#id94)"><path fill="rgb(0.779724%, 12.159729%, 26.669312%)" d="M 469.53125 318.15625 L 393.789062 318.15625 L 393.789062 462.386719 C 393.789062 464.242188 395.292969 465.746094 397.152344 465.746094 C 399.011719 465.746094 400.515625 464.242188 400.515625 462.386719 L 400.515625 324.875 L 469.53125 324.875 C 471.390625 324.875 472.898438 323.375 472.898438 321.519531 C 472.898438 319.660156 471.390625 318.15625 469.53125 318.15625 " fill-opacity="1" fill-rule="nonzero"/></g></svg>